<svg version="1.2" xmlns="http://www.w3.org/2000/svg" viewBox="0 0 586 591" width="586" height="591">
	<title>loicm</title>
	<style>
		.s0 { fill: none;stroke: #778c8c;stroke-width: 2 } 
		.s1 { fill: none;stroke: #777c7a;stroke-width: 2 } 
		.s2 { fill: none;stroke: #527168;stroke-width: 2 } 
		.s3 { fill: none;stroke: #3a7c70;stroke-width: 2 } 
		.s4 { fill: none;stroke: #1f665b;stroke-width: 2 } 
		.s5 { fill: none;stroke: #4e8b82;stroke-width: 2 } 
		.s6 { fill: none;stroke: #707a78;stroke-width: 2 } 
		.s7 { fill: none;stroke: #526156;stroke-width: 2 } 
		.s8 { fill: none;stroke: #c2cabb;stroke-width: 2 } 
		.s9 { fill: none;stroke: #c9dccf;stroke-width: 2 } 
		.s10 { fill: none;stroke: #706a66;stroke-width: 2 } 
		.s11 { fill: none;stroke: #4e7b70;stroke-width: 2 } 
		.s12 { fill: none;stroke: #c5f6e8;stroke-width: 2 } 
		.s13 { fill: none;stroke: #b1e7d6;stroke-width: 2 } 
		.s14 { fill: none;stroke: #bee3d5;stroke-width: 2 } 
		.s15 { fill: none;stroke: #87e6cc;stroke-width: 2 } 
		.s16 { fill: none;stroke: #59c1a6;stroke-width: 2 } 
		.s17 { fill: none;stroke: #3a6c5e;stroke-width: 2 } 
		.s18 { fill: #eef7f2 } 
		.s19 { fill: #a3c1ab } 
		.s20 { fill: #e0d2cb } 
		.s21 { fill: #3eaa91 } 
		.s22 { fill: #73d7ba } 
		.s23 { fill: #9bf4de } 
	</style>
	<g id="Layer">
		<path id="Layer" fill-rule="evenodd" class="s0" d="m13.3 217c-24.3 91.4-4.6 187.4 55 261"/>
		<path id="Layer" fill-rule="evenodd" class="s0" d="m125.5 531.5c50.4 35.5 109 54.3 170.3 54.3 7 0 14.6-0.8 21.9-1.3 29.5-2.1 58.4-9.2 85.8-20.3"/>
		<path id="Layer" fill-rule="evenodd" class="s0" d="m581.8 328.8q3.3-35.6 0.2-65.5c-7.3-70.8-44.5-141.3-98.6-188-75.2-64.9-173.7-88.3-269.9-60.8"/>
		<path id="Layer" fill-rule="evenodd" class="s1" d="m581.8 328.8c-12.2 106-79.6 194.6-178.3 235.4"/>
		<path id="Layer" fill-rule="evenodd" class="s1" d="m125.5 531.5q-32-23.2-57.3-53.5"/>
		<path id="Layer" fill-rule="evenodd" class="s1" d="m13.3 217c28.4-97.9 102.1-173.8 200.2-202.5"/>
		<path id="Layer" fill-rule="evenodd" class="s1" d="m195.5 23c-92 33.9-159.8 111.3-182.8 206.5q-0.2 0.8-0.2 1.7"/>
		<path id="Layer" fill-rule="evenodd" class="s0" d="m12.5 231.2c-13.5 59.8-7.3 120.6 16.3 177 15 35.8 36.8 65.1 64.3 92.3q57.5 57 137.4 75.4c55.2 12.7 111.1 8.9 164.5-11.1"/>
		<path id="Layer" fill-rule="evenodd" class="s1" d="m395 564.8c65.6-24.9 121.3-73.5 153.8-135.8"/>
		<path id="Layer" fill-rule="evenodd" class="s0" d="m548.8 429q29.2-56.8 31.8-120.8 1.3-31.6-2.9-57.9-11.9-75.6-61.2-136.3"/>
		<path id="Layer" fill-rule="evenodd" class="s1" d="m516.5 114q-22.5-28.1-51.3-49.8"/>
		<path id="Layer" fill-rule="evenodd" class="s0" d="m465.3 64.2q-7.2-5.8-14.9-10.9c-50.2-33.1-109.4-51-170.2-47.6-29.1 1.6-57.4 7-84.7 17.3"/>
		<path id="Layer" fill-rule="evenodd" class="s2" d="m280.5 55.5q-10.8 29.9-6.2 61.5"/>
		<path id="Layer" fill-rule="evenodd" class="s0" d="m274.3 117q3 21.7 12.7 41.3"/>
		<path id="Layer" fill-rule="evenodd" class="s0" d="m326.5 250.3q0 7.2-1.8 14.2"/>
		<path id="Layer" fill-rule="evenodd" class="s0" d="m308.2 303.5c-7.3 10.5-17.4 21.4-23.1 30.4q-19.1 30.4-14.1 67.6"/>
		<path id="Layer" fill-rule="evenodd" class="s3" d="m271 401.5l1.3 6.8q0.1 0.4-0.2 0c-6.1-8.3-11.6-14.8-13.6-21.6"/>
		<path id="Layer" fill-rule="evenodd" class="s0" d="m258.5 386.7c-5.7-27.6 7.5-47.1 22.3-68.4q21.5-31.1 17.2-69c-2.9-25.8-18.3-47-43-56.1q-13.1-4.8-22-7.4"/>
		<path id="Layer" fill-rule="evenodd" class="s3" d="m233 185.8c-19.2-6.9-34.1-16.3-43.3-35.1"/>
		<path id="Layer" fill-rule="evenodd" class="s4" d="m189.8 150.7c-4.3-10.3-4.8-20.5-6.4-29.9q-2.4-13.8-10.4-25.6c-0.4-0.6-0.9-1.7-1.8-1.7q-0.1 0-0.2 0.1-0.2 0.1-0.2 0.2-0.1 0.1-0.1 0.2 0 0.2 0 0.3c15.7 35.9 6.6 78.2-16.4 108.2-6.4 8.3-15.5 16.9-23.6 25-18.5 18.4-30.1 40.6-29.8 67.5 0.6 39.5 23.4 72.6 57.8 91"/>
		<path id="Layer" fill-rule="evenodd" class="s3" d="m158.8 386q14 6.9 33.7 15.3c40.2 17 71.9 53.9 64.9 99.9q-1.4 9.3-4.6 19.5c-3.9 12.5-4.6 22.6-0.9 35.2q0.3 1 0.5 1 0.3 0 0.5-0.1 0.3-0.1 0.5-0.2 0.1-0.2 0.2-0.4 0.1-0.3 0.1-0.5c-0.2-4.3-0.6-9.1-0.4-12.9 2.1-39.5 40.2-49 71.7-53.6"/>
		<path id="Layer" fill-rule="evenodd" class="s5" d="m325 489.2q18.8-2.3 35-5.2c65.1-12 116-61.6 127.1-127.3 12.3-72.8-24.2-145.3-91.1-177.7"/>
		<path id="Layer" fill-rule="evenodd" class="s6" d="m396 179l-0.5-0.5"/>
		<path id="Layer" fill-rule="evenodd" class="s2" d="m296 31.3c-0.2-1-0.1-5.2-0.5-5.6q-0.1 0-0.2-0.1-0.1 0-0.2 0-0.1 0.1-0.2 0.1-0.1 0.1-0.1 0.2l-2.3 3.8"/>
		<path id="Layer" fill-rule="evenodd" class="s7" d="m296 31.3q-0.7 25.6 2.7 51"/>
		<path id="Layer" fill-rule="evenodd" class="s8" d="m298.7 82.3q-3.7-1.2-6.5 1.2"/>
		<path id="Layer" fill-rule="evenodd" class="s7" d="m292.2 83.5q-2.4-13.6-2.4-29.3 0-2.3-1.2-0.2c-2.2 4.1-3.5 10.1-4.5 13.8q-2.8 10-3.6 20.4"/>
		<path id="Layer" fill-rule="evenodd" class="s2" d="m280.5 88.3q-0.5 31.4 18.5 56.2"/>
		<path id="Layer" fill-rule="evenodd" class="s9" d="m299 144.5q-1.3 1.2-2.9 1.9-0.1 0-0.2 0.1-0.1 0-0.2 0.1-0.1 0.1-0.1 0.2-0.1 0.1-0.1 0.2-0.4 0.9-1.5 1"/>
		<path id="Layer" fill-rule="evenodd" class="s2" d="m294 148c-1.9-2.3-9.5-15.1-10.4-15.4"/>
		<path id="Layer" fill-rule="evenodd" class="s9" d="m283.6 132.6q-5.7-6-6.3-14.4 0-0.2 0-0.3-0.1-0.1-0.1-0.2-0.1-0.1-0.2-0.2 0 0-0.2-0.1-1.1-0.7-2.5-0.4"/>
		<path id="Layer" fill-rule="evenodd" class="s7" d="m280.5 55.5q5.5-13.1 12-25.8"/>
		<path id="Layer" fill-rule="evenodd" class="s10" d="m292.2 83.5c5.3 33.3 22.9 62.5 53.1 78.7 9.4 5 28.8 12 46.5 22.5"/>
		<path id="Layer" fill-rule="evenodd" class="s11" d="m391.8 184.7l5.2 4.1"/>
		<path id="Layer" fill-rule="evenodd" class="s1" d="m308.7 155c10.1 10 21.9 17.1 31.9 26.1q18.6 16.8 27.7 40.1"/>
		<path id="Layer" fill-rule="evenodd" class="s1" d="m374 272q-4.8 33.2-27.4 57.9c-16.4 18-27.5 34.5-31.3 59.4"/>
		<path id="Layer" fill-rule="evenodd" class="s1" d="m316 419.3c3.2 11.4 8.4 22.4 9.5 34.2q0.1 0.5 0.4 0c1.2-1.7 1.3-13.2 1.4-15.9q0.4-8.5 3.5-21.9c6.3-26.5 23.4-48.5 46.5-62.4 13.1-7.9 25.9-14.5 37-26.3"/>
		<path id="Layer" fill-rule="evenodd" class="s12" d="m419.6 320.7q3.8-2.4 6.6 1.3"/>
		<path id="Layer" fill-rule="evenodd" class="s0" d="m426.2 322q-5.9 8.6-13.7 15.5"/>
		<path id="Layer" fill-rule="evenodd" class="s1" d="m412.5 337.5q-9.4 7.7-13.2 9.8c-24.9 13.3-47 28.8-57.6 56.1-5.9 15-7.7 28.5-9.3 43.6q-0.1 0.9 0.6 0.3c15.8-13.5 38.3-13.7 57-20.6"/>
		<path id="Layer" fill-rule="evenodd" class="s0" d="m390 426.7q9.5-3.1 18-8.2"/>
		<path id="Layer" fill-rule="evenodd" class="s12" d="m408 418.5q3.7 1.7 2.3 5.7"/>
		<path id="Layer" fill-rule="evenodd" class="s0" d="m410.3 424.2q-15 8.4-31.8 12.3"/>
		<path id="Layer" fill-rule="evenodd" class="s1" d="m378.5 436.5c-16.4 3-33.8 6.3-44.8 17.6-7.5 7.7-10.5 20.5-19.5 26.4q-4.2 2.8-5.5 5"/>
		<path id="Layer" fill-rule="evenodd" class="s13" d="m308.8 485.5q-2.9 3.1-7.1 1.7"/>
		<path id="Layer" fill-rule="evenodd" class="s1" d="m309 479.8c9.4-9.8 14.5-21.3 10.2-35q-1.2-3.5-5.3-12.7-3.2-7.2-4.9-19.6"/>
		<path id="Layer" fill-rule="evenodd" class="s1" d="m312.8 371.5q5-14.9 14.2-27.6c4.7-6.5 12.9-15 17.5-20.4q12.1-14.3 18.5-33"/>
		<path id="Layer" fill-rule="evenodd" class="s5" d="m397 188.8q4.5 3.7 8.3 8.1c28.3 33.8 40.5 84.9 14.3 123.8"/>
		<path id="Layer" fill-rule="evenodd" class="s0" d="m419.6 320.7l-5.3 6.3"/>
		<path id="Layer" fill-rule="evenodd" class="s0" d="m316 419.3q-2.8-15-0.7-30.1"/>
		<path id="Layer" fill-rule="evenodd" class="s0" d="m374 272q3.6-26.2-5.7-50.8"/>
		<path id="Layer" fill-rule="evenodd" class="s0" d="m308.7 155q-5.4-4.8-9.7-10.5"/>
		<path id="Layer" fill-rule="evenodd" class="s0" d="m294 148q7.1 9.8 15.3 16.7c8.7 7.2 20.7 15.2 28.2 22.2 28.6 26.8 38.8 66.3 25.5 103.6"/>
		<path id="Layer" fill-rule="evenodd" class="s0" d="m312.8 371.5q-5.8 20.1-3.8 41"/>
		<path id="Layer" fill-rule="evenodd" class="s0" d="m309 479.8q-3.2 4.1-7.3 7.4"/>
		<path id="Layer" fill-rule="evenodd" class="s3" d="m301.8 487.2c-10.8 3.6-21.5 6.4-30.8 13.3"/>
		<path id="Layer" fill-rule="evenodd" class="s4" d="m271 500.5v-0.3"/>
		<path id="Layer" fill-rule="evenodd" class="s3" d="m271 500.3q1.5-1.7 2.7-3.6 14.5-23.8 11.8-50.8-0.5-4.4-4-19.6-2.9-12.5-4.8-25.3"/>
		<path id="Layer" fill-rule="evenodd" class="s14" d="m396 179l-4.2 5.7"/>
		<path id="Layer" fill-rule="evenodd" class="s10" d="m395.5 178.5c-16.7-8.2-35.4-15.7-49.4-23.3-26.9-14.7-42.8-43.4-47.4-73"/>
		<path id="Layer" fill-rule="evenodd" class="s0" d="m283.6 132.6c1.6 2.5 2 5.8 2.7 7.8q7 19.8 19.7 36.6c9.5 12.6 16.6 23.1 22.2 37.3"/>
		<path id="Layer" fill-rule="evenodd" class="s1" d="m328.3 214.3c9.2 26.8 5.5 56.8-8.1 81.5-7 12.9-14.7 21.2-22.7 31.7"/>
		<path id="Layer" fill-rule="evenodd" class="s0" d="m297.5 327.5q-17.4 21.8-21 49.5-0.9 7.2 0.2 24"/>
		<path id="Layer" fill-rule="evenodd" class="s13" d="m276.7 401q-2.8 1-5.7 0.5"/>
		<path id="Layer" fill-rule="evenodd" class="s1" d="m308.2 303.5q12.3-17.8 16.5-39"/>
		<path id="Layer" fill-rule="evenodd" class="s1" d="m326.5 250.3q1.8-30.7-15.8-55.8c-8.9-12.5-16.4-21.4-23.7-36.3"/>
		<path id="Layer" fill-rule="evenodd" class="s15" d="m325 489.2q-2.3-3.4 0.3-6.4"/>
		<path id="Layer" fill-rule="evenodd" class="s5" d="m325.3 482.8c19.9-3.4 39.5-5.3 58.7-12.2 105.7-37.9 130.1-171.7 56-251.1q-11.5-12.3-30.2-26-0.4-0.3-0.1 0.1 27.8 31.4 30.6 73.7 0.9 14.1 6.6 27c3.5 7.9 7.7 16.3 9.8 23.9 11.6 42-9.4 85-46.5 106"/>
		<path id="Layer" fill-rule="evenodd" class="s5" d="m408 418.5c26.6-15.9 43.7-42.5 45.3-73.4 1.1-21.8-8.6-39.1-13.6-57.6q-0.2-0.5-0.2 0-2.9 18.8-13.3 34.5"/>
		<path id="Layer" fill-rule="evenodd" class="s3" d="m325.3 482.8l-11.3 1.4"/>
		<path id="Layer" fill-rule="evenodd" class="s16" d="m271 500.3q-2.8 1.3-3.6 4.2-0.1 0.4 0.2 0l3.4-4"/>
		<path id="Layer" fill-rule="evenodd" class="s17" d="m308.8 485.5l5.2-1.3"/>
		<path id="Layer" fill-rule="evenodd" class="s3" d="m164 340q13.9 13.4 31.2 22.1c14.4 7.2 30.7 13.8 43.5 22.2q27.4 17.9 37.4 48.6c6.3 19.3 4.1 38.2-5 56.1-3.2 6-6.6 11.7-9.5 17.9q-0.1 0.3-0.4 0.4-0.6 0-0.3-0.5 0.9-1.6 1.1-2.3c9.4-43.7-16-82.6-53.6-102.7-14.3-7.7-31.5-13.8-46.9-21.6"/>
		<path id="Layer" fill-rule="evenodd" class="s16" d="m189.8 150.7q-4.2 0.9-4.3 5"/>
		<path id="Layer" fill-rule="evenodd" class="s4" d="m185.5 155.7q0 11 2.5 21.8"/>
		<path id="Layer" fill-rule="evenodd" class="s16" d="m188 177.5q-2.9-0.1-5.5 1"/>
		<path id="Layer" fill-rule="evenodd" class="s4" d="m182.5 178.5l-1.3-10.9q-0.1-0.5-0.2-0.1-3.1 8.5-6.1 17-1.5 4.3-9.9 20.1c-0.3 0.6-0.3 0.5-0.9 0.9q-0.4 0.2-0.6 0.7c-5.1 10.2-11.5 21.5-14.9 31.2-12.3 34.8-6.4 72.8 20.9 99"/>
		<path id="Layer" fill-rule="evenodd" class="s16" d="m169.5 336.4l-5.3 2.4q-0.1 0-0.1 0.1-0.1 0-0.1 0.1-0.1 0.1-0.1 0.2 0 0.1 0.1 0.2 0 0.3 0 0.6"/>
		<path id="Layer" fill-rule="evenodd" class="s4" d="m164 340c-35.6-35.4-36.6-89.6-8.6-129.8q0-0.1 0-0.2 0 0 0-0.1 0-0.1 0-0.1-0.1-0.1-0.1-0.1-0.2-0.2-0.5 0.1-8.7 10.4-12 13.8c-17.4 17.5-31.5 34.8-35.2 60.1q-1.1 7.3-0.9 11.6c1.9 37.8 22.3 66.7 54.8 84.9"/>
		<path id="Layer" fill-rule="evenodd" class="s16" d="m161.5 380.2l-2.8 5.8"/>
		<path id="Layer" fill-rule="evenodd" class="s3" d="m182.5 178.5q7.8 47.8 50.2 70.3"/>
		<path id="Layer" fill-rule="evenodd" class="s0" d="m271 285.2q6 16.2 1.2 32.9-0.5 1.7-1.4 3.2c-11.6 17.4-20 33.1-19.6 54.7q0.1 6.1 3.1 11.3"/>
		<path id="Layer" fill-rule="evenodd" class="s3" d="m254.3 387.3q0.3 0.4 0.3 0.8 0 0.5-0.3 0.1c-0.2-0.3-0.3-0.6-0.6-0.9q-11.1-9.6-20.5-14.1c-21.9-10.6-45.3-19.3-63.7-36.8"/>
		<path id="Layer" fill-rule="evenodd" class="s13" d="m258.5 386.7l-4.3 0.6"/>
		<path id="Layer" fill-rule="evenodd" class="s1" d="m271 285.2c-5.8-16.3-16.5-24.5-31-32.7"/>
		<path id="Layer" fill-rule="evenodd" class="s13" d="m233 185.8q-3.6 1.4-3.5 5.4"/>
		<path id="Layer" fill-rule="evenodd" class="s3" d="m229.5 191.2c-18.9-6.1-34.9-17.6-44-35.5"/>
		<path id="Layer" fill-rule="evenodd" class="s0" d="m229.5 191.2q9.3 3 18.5 6.1c46.9 15.6 54.1 66 35.2 105.7q-1.8 3.7-3.1 5.6-0.3 0.4-0.3-0.1 0-4.9-0.2-9.7c-0.9-23.9-15.7-41.1-36.4-51.5"/>
		<path id="Layer" fill-rule="evenodd" class="s3" d="m243.3 247.3q-14.1-7.6-17-9.6c-21.7-14.7-33-35.1-38.3-60.2"/>
		<path id="Layer" fill-rule="evenodd" class="s13" d="m243.3 247.3q-2.2 2.2-3.3 5.2"/>
		<path id="Layer" fill-rule="evenodd" class="s17" d="m240 252.5l-7.3-3.7"/>
		<path id="Layer" fill-rule="evenodd" class="s6" d="m334.4 86.3q0-0.4-0.1-0.8-0.2-0.3-0.5-0.6-0.3-0.3-0.6-0.4-0.4-0.2-0.8-0.2h-5.1q-0.4 0-0.8 0.2-0.4 0.1-0.6 0.4-0.3 0.3-0.5 0.6-0.1 0.4-0.1 0.8v5.4q0 0.4 0.1 0.8 0.2 0.4 0.5 0.6 0.3 0.3 0.6 0.5 0.4 0.1 0.8 0.1h5.1q0.4 0 0.8-0.1 0.4-0.2 0.6-0.5 0.3-0.3 0.5-0.6 0.1-0.4 0.1-0.8z"/>
		<path id="Layer" fill-rule="evenodd" class="s6" d="m412.7 110.1q0-0.5-0.2-1-0.2-0.4-0.6-0.8-0.4-0.4-0.9-0.6-0.4-0.2-1-0.2l-4.4 0.1q-0.5 0-1 0.2-0.5 0.2-0.8 0.5-0.4 0.4-0.6 0.9-0.2 0.5-0.2 1v4.5q0 0.5 0.2 1 0.2 0.4 0.6 0.8 0.4 0.4 0.9 0.6 0.4 0.2 1 0.2l4.4-0.1q0.5 0 1-0.2 0.5-0.2 0.8-0.5 0.4-0.4 0.6-0.9 0.2-0.5 0.2-1z"/>
		<path id="Layer" fill-rule="evenodd" class="s6" d="m498.8 141.6q0-0.3-0.1-0.6-0.1-0.3-0.4-0.5-0.2-0.2-0.5-0.3-0.3-0.1-0.6-0.1l-6 0.1q-0.3 0-0.6 0.1-0.3 0.1-0.5 0.3-0.2 0.3-0.3 0.5-0.1 0.3-0.1 0.7l0.1 6.1q0 0.3 0.1 0.6 0.1 0.2 0.4 0.5 0.2 0.2 0.5 0.3 0.3 0.1 0.6 0.1l6-0.1q0.3 0 0.6-0.1 0.3-0.2 0.5-0.4 0.2-0.2 0.3-0.5 0.1-0.3 0.1-0.6z"/>
		<path id="Layer" fill-rule="evenodd" class="s4" d="m134.2 158.4q0-0.2-0.1-0.4 0-0.2-0.2-0.3-0.1-0.2-0.3-0.2-0.2-0.1-0.4-0.1l-7-0.2q-0.2 0-0.3 0.1-0.2 0-0.4 0.2-0.1 0.1-0.2 0.3-0.1 0.2-0.1 0.4l-0.1 6.7q0 0.2 0 0.4 0.1 0.2 0.2 0.3 0.2 0.1 0.3 0.2 0.2 0.1 0.4 0.1l7 0.2q0.2 0 0.4-0.1 0.2-0.1 0.3-0.2 0.2-0.1 0.3-0.3 0-0.2 0-0.4z"/>
		<path id="Layer" fill-rule="evenodd" class="s6" d="m453.9 179.3q0-0.6-0.2-1.1-0.2-0.5-0.6-0.9-0.3-0.4-0.9-0.6-0.5-0.2-1-0.2l-4.1-0.1q-0.5 0-1.1 0.2-0.5 0.2-0.9 0.6-0.4 0.4-0.6 0.9-0.2 0.5-0.2 1.1l-0.1 3.4q0 0.6 0.2 1.1 0.2 0.5 0.6 0.9 0.4 0.4 0.9 0.6 0.5 0.3 1.1 0.3h4.1q0.5 0 1-0.2 0.6-0.2 1-0.6 0.4-0.4 0.6-0.9 0.2-0.5 0.2-1z"/>
		<path id="Layer" fill-rule="evenodd" class="s4" d="m74.8 218q0-0.2-0.1-0.3 0-0.1-0.1-0.2-0.1-0.1-0.3-0.2-0.1 0-0.2 0l-5.6-0.1q-0.2 0-0.3 0.1-0.1 0-0.2 0.1-0.1 0.1-0.2 0.3 0 0.1 0 0.2l-0.1 6.9q0 0.1 0.1 0.3 0 0.1 0.1 0.2 0.1 0.1 0.3 0.1 0.1 0.1 0.2 0.1h5.6q0.2 0 0.3 0 0.1-0.1 0.2-0.2 0.1-0.1 0.2-0.2 0-0.1 0-0.3z"/>
		<path id="Layer" fill-rule="evenodd" class="s3" d="m92.2 375.3q0-0.1-0.1-0.3 0-0.1-0.1-0.2-0.1-0.1-0.3-0.2-0.1-0.1-0.3-0.1l-7.1 0.1q-0.2 0-0.3 0.1-0.2 0-0.3 0.2-0.1 0.1-0.2 0.2 0 0.2 0 0.3l0.1 7.6q0 0.2 0 0.3 0.1 0.2 0.2 0.3 0.1 0.1 0.3 0.1 0.1 0.1 0.3 0.1l7.1-0.1q0.2 0 0.3 0 0.2-0.1 0.3-0.2 0.1-0.1 0.1-0.3 0.1-0.1 0.1-0.3z"/>
		<path id="Layer" fill-rule="evenodd" class="s0" d="m525.9 389.8q0-0.6-0.2-1.2-0.2-0.6-0.7-1.1-0.4-0.4-1-0.7-0.6-0.2-1.2-0.2h-3.1q-0.6 0-1.2 0.2-0.6 0.2-1 0.7-0.5 0.4-0.7 1-0.3 0.6-0.3 1.2v3.6q0 0.6 0.2 1.2 0.3 0.6 0.7 1.1 0.4 0.4 1 0.7 0.6 0.2 1.2 0.2h3.1q0.6 0 1.2-0.2 0.6-0.2 1.1-0.7 0.4-0.4 0.7-1 0.2-0.6 0.2-1.2z"/>
		<path id="Layer" fill-rule="evenodd" class="s4" d="m131.6 453q0-0.1 0-0.2-0.1-0.2-0.2-0.3-0.1-0.1-0.2-0.1-0.2-0.1-0.3-0.1h-7.5q-0.2 0-0.3 0-0.1 0.1-0.2 0.2-0.2 0.1-0.2 0.2-0.1 0.2-0.1 0.3v7.4q0 0.2 0.1 0.3 0 0.1 0.1 0.2 0.1 0.2 0.3 0.2 0.1 0.1 0.2 0.1h7.5q0.2 0 0.3-0.1 0.2 0 0.3-0.1 0.1-0.1 0.1-0.3 0.1-0.1 0.1-0.2z"/>
		<path id="Layer" fill-rule="evenodd" class="s0" d="m216.9 470.3q0-0.6-0.2-1.2-0.2-0.6-0.6-1-0.4-0.4-1-0.7-0.6-0.2-1.2-0.3h-3.2q-0.6-0.1-1.2 0.2-0.5 0.2-1 0.6-0.4 0.4-0.7 1-0.2 0.5-0.2 1.1l-0.1 3.4q0 0.6 0.2 1.2 0.2 0.6 0.6 1 0.4 0.5 1 0.7 0.5 0.3 1.1 0.3l3.3 0.1q0.6 0 1.2-0.2 0.5-0.3 1-0.7 0.4-0.4 0.7-1 0.2-0.5 0.2-1.1z"/>
		<path id="Layer" fill-rule="evenodd" class="s0" d="m453.9 476.7q0-0.6-0.2-1.1-0.3-0.5-0.7-0.9-0.4-0.5-0.9-0.7-0.6-0.2-1.2-0.2h-3.6q-0.6 0-1.2 0.2-0.5 0.2-0.9 0.7-0.4 0.4-0.6 0.9-0.3 0.5-0.3 1.1v3.8q0 0.6 0.3 1.1 0.2 0.5 0.6 1 0.4 0.4 0.9 0.6 0.6 0.2 1.2 0.2h3.7q0.5 0 1.1-0.2 0.5-0.2 0.9-0.6 0.4-0.5 0.7-1 0.2-0.5 0.2-1.1z"/>
		<path id="Layer" fill-rule="evenodd" class="s0" d="m354.3 516q0-0.4-0.1-0.9-0.2-0.4-0.5-0.7-0.3-0.3-0.7-0.5-0.4-0.2-0.8-0.3l-3.3-0.1q-0.4-0.1-0.8 0.1-0.4 0.1-0.8 0.4-0.3 0.3-0.5 0.7-0.2 0.4-0.2 0.9l-0.2 2.4q0 0.4 0.2 0.9 0.1 0.4 0.4 0.7 0.3 0.3 0.7 0.5 0.4 0.2 0.8 0.3l3.3 0.1q0.4 0.1 0.9-0.1 0.4-0.1 0.7-0.4 0.3-0.3 0.5-0.7 0.2-0.4 0.3-0.9z"/>
		<path id="Layer" fill-rule="evenodd" class="s10" d="m379.3 58.3q0 0 0-0.1 0 0-0.1-0.1 0 0-0.1 0 0-0.1-0.1-0.1l-8.5 0.1q0 0-0.1 0 0 0-0.1 0 0 0.1 0 0.1 0 0.1 0 0.1v9q0 0 0 0.1 0 0 0.1 0.1 0 0 0.1 0 0 0 0.1 0h8.5q0 0 0.1 0 0 0 0.1-0.1 0 0 0-0.1 0 0 0-0.1z"/>
		<path id="Layer" fill-rule="evenodd" class="s0" d="m402.2 246.9q0-0.4-0.2-0.7-0.1-0.4-0.3-0.6-0.3-0.3-0.6-0.4-0.4-0.1-0.7-0.1h-6.6q-0.4 0-0.7 0.1-0.3 0.1-0.6 0.4-0.2 0.2-0.4 0.6-0.1 0.3-0.1 0.7v5.4q0 0.4 0.1 0.7 0.2 0.3 0.4 0.6 0.3 0.2 0.6 0.4 0.3 0.1 0.7 0.1h6.6q0.3 0 0.7-0.1 0.3-0.2 0.6-0.4 0.2-0.3 0.3-0.6 0.2-0.3 0.2-0.7z"/>
		<path id="Layer" fill-rule="evenodd" class="s0" d="m255.7 220.8q0-0.3-0.1-0.5-0.1-0.3-0.3-0.5-0.2-0.2-0.5-0.3-0.2-0.1-0.5-0.1l-6.1-0.1q-0.3 0-0.5 0.2-0.3 0.1-0.5 0.3-0.2 0.2-0.3 0.4-0.1 0.3-0.1 0.6l-0.1 6.7q0 0.3 0.2 0.5 0.1 0.3 0.3 0.5 0.2 0.2 0.4 0.3 0.3 0.1 0.6 0.1l6 0.1q0.3 0 0.6-0.2 0.3-0.1 0.5-0.3 0.2-0.2 0.3-0.4 0.1-0.3 0.1-0.6z"/>
		<path id="Layer" fill-rule="evenodd" class="s2" d="m174.7 282.1q0-0.2-0.1-0.4 0-0.1-0.1-0.2-0.2-0.2-0.3-0.2-0.2-0.1-0.3-0.1l-6 0.1q-0.1 0-0.3 0-0.1 0.1-0.3 0.2-0.1 0.1-0.1 0.3-0.1 0.1-0.1 0.3v7q0 0.2 0.1 0.3 0.1 0.2 0.2 0.3 0.1 0.1 0.3 0.2 0.1 0.1 0.3 0.1l5.9-0.1q0.2 0 0.4 0 0.1-0.1 0.2-0.2 0.1-0.2 0.2-0.3 0.1-0.2 0.1-0.3z"/>
		<path id="Layer" fill-rule="evenodd" class="s0" d="m228.2 305.1q0-0.5-0.2-1-0.2-0.5-0.6-0.9-0.4-0.4-0.9-0.6-0.5-0.3-1-0.3h-4.2q-0.5 0-1 0.2-0.5 0.2-0.9 0.6-0.4 0.4-0.6 0.9-0.3 0.5-0.3 1v4.1q0 0.6 0.2 1.1 0.2 0.5 0.6 0.9 0.4 0.4 0.9 0.6 0.5 0.2 1 0.2l4.1 0.1q0.6 0 1.1-0.2 0.5-0.2 0.9-0.6 0.4-0.4 0.6-0.9 0.2-0.5 0.2-1z"/>
		<path id="Layer" fill-rule="evenodd" class="s5" d="m403.2 386.8q0-0.2-0.1-0.4-0.1-0.2-0.3-0.4-0.2-0.2-0.4-0.3-0.2-0.1-0.5-0.1l-7 0.1q-0.2 0-0.4 0.1-0.3 0.1-0.4 0.3-0.2 0.2-0.3 0.4-0.1 0.2-0.1 0.5l0.1 6.3q0 0.3 0.1 0.5 0.1 0.2 0.3 0.4 0.2 0.2 0.4 0.3 0.2 0.1 0.5 0h6.9q0.3-0.1 0.5-0.1 0.2-0.1 0.4-0.3 0.2-0.2 0.3-0.4 0.1-0.3 0.1-0.5z"/>
		<path id="Layer" fill-rule="evenodd" class="s16" d="m88.1 380.5q0.2 0 0.4-0.1 0.2-0.1 0.4-0.3 0.2-0.1 0.3-0.4 0.1-0.3 0.1-0.6 0-0.2-0.1-0.5 0-0.3-0.2-0.5-0.1-0.2-0.3-0.3-0.3-0.2-0.5-0.2-0.2 0-0.4 0.1-0.3 0.1-0.4 0.3-0.2 0.2-0.3 0.5-0.1 0.2-0.1 0.5-0.1 0.3 0 0.6 0.1 0.2 0.2 0.5 0.2 0.2 0.4 0.3 0.2 0.1 0.5 0.1z"/>
	</g>
	<path id="Layer" fill-rule="evenodd" class="s18" d="m581.8 328.8c-12.2 106-79.6 194.6-178.3 235.4-27.4 11-56.3 18.2-85.8 20.3-7.3 0.5-14.9 1.3-21.9 1.3-61.3-0.1-119.9-18.8-170.3-54.3q-32-23.2-57.2-53.5c-59.6-73.6-79.3-169.6-55-261 28.4-97.9 102.1-173.8 200.2-202.5 96.2-27.5 194.7-4.1 269.9 60.8 54.1 46.7 91.3 117.2 98.6 188q3.1 29.9-0.2 65.4zm-386.3-305.7c-92 33.9-159.8 111.3-182.8 206.5q-0.2 0.8-0.2 1.7c-13.5 59.8-7.3 120.6 16.3 177 15 35.8 36.8 65.1 64.3 92.3q57.6 57 137.4 75.4c55.2 12.7 111.1 8.9 164.5-11.2 65.6-24.8 121.3-73.4 153.8-135.7q29.2-56.8 31.8-120.8 1.3-31.6-2.9-57.9-11.9-75.6-61.2-136.3-22.4-28.1-51.2-49.8-7.2-5.8-14.9-10.9c-50.2-33.1-109.4-51-170.2-47.6-29.1 1.6-57.3 7-84.7 17.3z"/>
	<path id="Layer" class="s19" d="m296 31.3q-0.7 25.6 2.7 51-3.7-1.2-6.5 1.2-2.4-13.6-2.4-29.3 0-2.3-1.2-0.2c-2.2 4.1-3.5 10.1-4.5 13.8q-2.8 10-3.6 20.4-0.5 31.5 18.5 56.3-1.3 1.2-2.9 1.9-0.1 0-0.2 0.1-0.1 0-0.2 0.1-0.1 0.1-0.1 0.2-0.1 0.1-0.1 0.2-0.4 0.9-1.5 1c-1.9-2.3-9.5-15.1-10.4-15.4q-5.7-6-6.3-14.4 0-0.2 0-0.3-0.1-0.1-0.1-0.2-0.1-0.1-0.2-0.2 0 0-0.1-0.1-1.2-0.7-2.6-0.4-4.6-31.6 6.2-61.5 5.5-13.1 12-25.7l2.3-3.9q0-0.1 0.1-0.2 0.1 0 0.2-0.1 0.1 0 0.2 0 0.1 0.1 0.2 0.1c0.4 0.4 0.3 4.6 0.5 5.6z"/>
	<path id="Layer" class="s20" d="m370.3 58.3c0-0.1 0.1-0.2 0.2-0.2l8.5-0.1c0.2 0 0.3 0.2 0.3 0.3v8.9c0 0.2-0.1 0.3-0.2 0.3h-8.5c-0.2 0-0.3-0.1-0.3-0.2z"/>
	<path id="Layer" class="s20" d="m298.7 82.3c4.6 29.5 20.5 58.2 47.4 72.9 14 7.6 32.7 15.1 49.4 23.3l0.5 0.5-4.2 5.7c-17.7-10.5-37.1-17.5-46.5-22.5-30.2-16.2-47.8-45.4-53.1-78.7q2.8-2.4 6.5-1.3z"/>
	<path id="Layer" class="s20" d="m325.3 86.3c0-1.1 0.9-2 2-2h5.1c1.1 0 2 0.9 2 2v5.4c0 1.1-0.9 2-2 2h-5.1c-1.1 0-2-0.9-2-2z"/>
	<path id="Layer" class="s21" d="m189.8 150.7q-4.2 0.9-4.3 5 0 11 2.5 21.8-2.9-0.1-5.5 1l-1.3-10.9q-0.1-0.5-0.2-0.1-3.1 8.5-6.1 17-1.5 4.3-9.9 20.1c-0.3 0.7-0.3 0.5-0.9 0.9q-0.4 0.3-0.6 0.7c-5.1 10.2-11.5 21.5-14.9 31.2-12.3 34.8-6.4 72.8 20.9 99l-5.3 2.4q-0.1 0-0.1 0.1-0.1 0-0.1 0.1-0.1 0.1-0.1 0.2 0 0.1 0.1 0.2 0 0.3 0 0.6c-35.6-35.4-36.6-89.6-8.6-129.8q0-0.1 0-0.2 0 0 0-0.1 0-0.1 0-0.1-0.1-0.1-0.1-0.1-0.2-0.2-0.5 0.1-8.7 10.4-12 13.8c-17.4 17.5-31.5 34.8-35.2 60.1q-1.1 7.3-0.9 11.6c1.9 37.8 22.3 66.7 54.8 84.9l-2.8 5.8c-34.4-18.4-57.2-51.5-57.8-91-0.3-26.9 11.3-49.1 29.8-67.5 8.1-8.1 17.2-16.7 23.6-25 23-30 32.1-72.3 16.4-108.2q0-0.1 0-0.3 0-0.1 0.1-0.2 0-0.1 0.2-0.2 0.1-0.1 0.2-0.1c0.9 0 1.4 1.1 1.8 1.7q8 11.8 10.4 25.6c1.7 9.4 2.1 19.6 6.3 29.9z"/>
	<path id="Layer" class="s20" d="m403 110.2c0-1.5 1.2-2.6 2.6-2.6l4.4-0.1c1.5 0 2.7 1.2 2.7 2.6v4.5c0 1.5-1.2 2.6-2.6 2.6l-4.4 0.1c-1.5 0-2.7-1.2-2.7-2.6z"/>
	<path id="Layer" class="s18" d="m283.6 132.6c1.6 2.5 2 5.8 2.7 7.8q7 19.8 19.7 36.6c9.5 12.6 16.6 23.1 22.2 37.3 9.3 26.8 5.6 56.8-8 81.5-7 12.9-14.7 21.2-22.7 31.7q-17.4 21.8-21 49.5-0.9 7.2 0.2 24-2.8 1-5.7 0.5-5-37.2 14.1-67.6c5.7-9 15.8-19.9 23.1-30.4q12.3-17.8 16.5-39 1.8-7 1.8-14.3 1.8-30.6-15.8-55.7c-8.9-12.5-16.4-21.4-23.7-36.2q-9.7-19.6-12.7-41.3 1.4-0.3 2.5 0.4 0.2 0.1 0.2 0.1 0.1 0.1 0.2 0.2 0 0.1 0.1 0.2 0 0.1 0 0.3 0.6 8.4 6.3 14.4z"/>
	<path id="Layer" class="s20" d="m489.7 141.8c0-0.9 0.7-1.6 1.5-1.6l6-0.1c0.9-0.1 1.6 0.6 1.6 1.5l0.1 6.1c0 0.9-0.7 1.6-1.5 1.6l-6 0.1c-0.9 0-1.6-0.7-1.6-1.5z"/>
	<path id="Layer" class="s18" d="m299 144.5q4.3 5.7 9.7 10.5c10.1 10 21.9 17.1 31.9 26.1q18.6 16.8 27.7 40.1 9.3 24.6 5.7 50.8-4.8 33.2-27.4 57.9c-16.4 18-27.5 34.5-31.3 59.4q-2.1 15 0.7 30c3.2 11.4 8.4 22.4 9.5 34.2q0.1 0.5 0.4 0c1.2-1.7 1.3-13.2 1.4-15.9q0.4-8.5 3.5-21.9c6.3-26.5 23.4-48.5 46.5-62.4 13.1-7.9 25.9-14.5 37-26.3l5.3-6.3q3.8-2.4 6.6 1.3-5.9 8.6-13.7 15.5-9.4 7.7-13.2 9.8c-24.9 13.3-47 28.8-57.6 56.1-5.9 15-7.7 28.5-9.3 43.6q-0.1 0.9 0.6 0.3c15.8-13.5 38.3-13.7 57-20.6q9.5-3.1 18-8.2 3.7 1.7 2.3 5.7-15 8.4-31.8 12.3c-16.4 3-33.8 6.3-44.8 17.6-7.5 7.7-10.5 20.5-19.4 26.4q-4.3 2.8-5.5 5-2.9 3.1-7 1.7 4-3.3 7.2-7.4c9.4-9.8 14.5-21.3 10.2-35q-1.2-3.5-5.3-12.7-3.2-7.2-4.9-19.6-2-20.9 3.8-41 5-14.9 14.2-27.6c4.7-6.5 12.9-15 17.5-20.4q12.1-14.3 18.5-33c13.3-37.3 3.1-76.8-25.5-103.6-7.5-7-19.5-15-28.2-22.2q-8.2-6.9-15.3-16.7 1.1-0.1 1.5-1 0-0.1 0.1-0.2 0-0.1 0.1-0.2 0.1-0.1 0.2-0.1 0.1-0.1 0.2-0.1 1.6-0.7 2.9-1.9z"/>
	<path id="Layer" class="s22" d="m189.8 150.7c9.1 18.8 24 28.2 43.2 35.1q-3.6 1.4-3.5 5.4c-18.9-6.1-34.9-17.6-44-35.5q0.1-4.1 4.2-5z"/>
	<path id="Layer" class="s21" d="m125.2 158.2c0-0.6 0.5-1 1-1l7 0.2c0.6 0 1 0.4 1 1l-0.2 6.7c0 0.6-0.4 1-1 1l-7-0.2c-0.5 0-1-0.5-0.9-1z"/>
	<path id="Layer" class="s20" d="m444.3 179.2c0-1.6 1.3-2.8 2.8-2.8l4.1 0.1c1.5 0 2.8 1.3 2.7 2.8v3.5c0 1.5-1.3 2.7-2.8 2.7h-4.1c-1.5 0-2.8-1.3-2.8-2.9z"/>
	<path id="Layer" class="s22" d="m188 177.5c5.3 25.1 16.6 45.6 38.3 60.2q2.9 2 17 9.6-2.2 2.2-3.3 5.2l-7.3-3.7q-42.4-22.5-50.2-70.3 2.6-1.1 5.5-1z"/>
	<path id="Layer" class="s23" d="m396 179c66.9 32.4 103.4 104.9 91.1 177.7-11.1 65.7-62 115.3-127.1 127.3q-16.2 2.9-35 5.2-2.3-3.4 0.3-6.4c19.9-3.4 39.5-5.3 58.7-12.2 105.7-37.9 130.1-171.7 56-251.1q-11.5-12.3-30.2-25.9-0.4-0.3-0.1 0 27.8 31.4 30.6 73.7 0.9 14.1 6.6 27c3.5 7.9 7.7 16.3 9.8 23.9 11.6 42-9.4 85-46.5 106q1.5-4-2.2-5.7c26.6-15.9 43.7-42.5 45.3-73.4 1.1-21.8-8.6-39.1-13.6-57.6q-0.2-0.5-0.2 0-2.9 18.8-13.3 34.5-2.8-3.7-6.6-1.3c26.2-38.9 14-90-14.3-123.8q-3.8-4.4-8.3-8.1l-5.2-4.1z"/>
	<path id="Layer" class="s18" d="m233 185.8q8.9 2.6 22 7.4c24.8 9.1 40.1 30.2 43 56.1q4.3 37.9-17.2 69c-14.8 21.3-28 40.8-22.3 68.4l-4.3 0.6q-2.9-5.2-3-11.3c-0.4-21.6 8-37.3 19.6-54.7q0.9-1.5 1.4-3.2 4.8-16.7-1.2-32.9c-5.8-16.3-16.5-24.5-31-32.7q1.1-3 3.2-5.2c20.7 10.4 35.5 27.6 36.4 51.5q0.2 4.8 0.2 9.7 0 0.5 0.3 0.1 1.3-1.9 3.1-5.6c18.9-39.7 11.7-90.1-35.2-105.7q-9.2-3.1-18.5-6.1-0.1-4 3.5-5.4z"/>
	<path id="Layer" class="s21" d="m67.8 217.9c0-0.4 0.3-0.7 0.7-0.7l5.6 0.1c0.3 0 0.7 0.3 0.7 0.7l-0.1 6.8c0 0.4-0.3 0.7-0.7 0.7h-5.6c-0.4 0-0.7-0.3-0.7-0.7z"/>
	<path id="Layer" class="s18" d="m246.8 220.8c0-0.8 0.6-1.5 1.4-1.5l6.1 0.1c0.8 0 1.4 0.6 1.4 1.4v6.7c0 0.8-0.7 1.5-1.5 1.5l-6-0.1c-0.8 0-1.5-0.6-1.5-1.4z"/>
	<path id="Layer" class="s18" d="m392 246.9c0-1 0.8-1.8 1.8-1.8h6.6c1 0 1.8 0.8 1.8 1.8v5.4c0 1-0.8 1.8-1.8 1.8h-6.6c-1 0-1.8-0.8-1.8-1.8z"/>
	<path id="Layer" class="s19" d="m167.1 282.1c0-0.5 0.4-0.8 0.8-0.8l6-0.1c0.4 0 0.8 0.4 0.8 0.9l0.1 7c0 0.4-0.4 0.8-0.9 0.8l-5.9 0.1c-0.5 0-0.9-0.4-0.9-0.9z"/>
	<path id="Layer" class="s18" d="m218.5 305c0.1-1.5 1.3-2.7 2.8-2.7h4.2c1.5 0.1 2.7 1.3 2.7 2.8l-0.1 4.2c0 1.5-1.2 2.7-2.8 2.7l-4.1-0.1c-1.5 0-2.7-1.2-2.7-2.8z"/>
	<path id="Layer" class="s22" d="m169.5 336.4c18.4 17.5 41.8 26.2 63.7 36.8q9.4 4.5 20.5 14.1c0.3 0.3 0.4 0.6 0.6 0.9q0.3 0.4 0.3-0.1 0-0.4-0.4-0.8l4.3-0.6c2 6.8 7.5 13.3 13.6 21.6q0.3 0.4 0.2 0l-1.3-6.8q2.9 0.5 5.7-0.5 1.9 12.8 4.8 25.3 3.5 15.2 4 19.6 2.7 27-11.8 50.8-1.2 1.9-2.7 3.6-2.8 1.3-3.6 4.2-0.1 0.4 0.2 0l3.4-4c9.3-6.9 20-9.7 30.8-13.3q4.1 1.4 6.9-1.7l5.3-1.2 11.2-1.5q-2.5 3-0.2 6.4c-31.5 4.6-69.6 14.1-71.7 53.6-0.2 3.8 0.3 8.6 0.4 12.9q0 0.2-0.1 0.5-0.1 0.2-0.2 0.4-0.2 0.1-0.5 0.2-0.2 0.1-0.4 0.1-0.3 0-0.6-1c-3.7-12.6-3-22.7 0.9-35.2q3.2-10.2 4.6-19.5c7-46-24.7-82.9-64.9-99.9q-19.7-8.4-33.7-15.3l2.7-5.8c15.4 7.8 32.6 13.9 46.9 21.6 37.6 20.1 63 59 53.6 102.7q-0.2 0.8-1.1 2.3-0.3 0.5 0.3 0.5 0.3-0.1 0.4-0.4c2.9-6.2 6.3-11.9 9.5-17.9 9.1-17.9 11.3-36.8 5-56.1q-10-30.6-37.4-48.6c-12.8-8.4-29.1-15-43.5-22.2q-17.3-8.7-31.2-22.1 0-0.3-0.1-0.6 0-0.1 0-0.2 0-0.1 0.1-0.2 0-0.1 0.1-0.1 0-0.1 0.1-0.1z"/>
	<path id="Layer" fill-rule="evenodd" class="s22" d="m92.3 382.9q0 0.2-0.1 0.3 0 0.2-0.1 0.3-0.1 0.1-0.3 0.2-0.1 0-0.3 0l-7.1 0.1q-0.2 0-0.3-0.1-0.2 0-0.3-0.1-0.1-0.1-0.2-0.3 0-0.1 0-0.3l-0.1-7.6q0-0.1 0-0.3 0.1-0.1 0.2-0.2 0.1-0.2 0.3-0.2 0.1-0.1 0.3-0.1l7.1-0.1q0.2 0 0.3 0.1 0.2 0.1 0.3 0.2 0.1 0.1 0.1 0.2 0.1 0.2 0.1 0.3zm-4.2-2.4q0.2 0 0.4-0.1 0.2-0.1 0.4-0.3 0.2-0.1 0.3-0.4 0.1-0.3 0.1-0.6 0-0.2 0-0.5-0.1-0.3-0.3-0.5-0.1-0.2-0.3-0.3-0.3-0.2-0.5-0.2-0.2 0-0.4 0.1-0.3 0.1-0.4 0.3-0.2 0.2-0.3 0.5-0.1 0.2-0.1 0.5-0.1 0.3 0 0.6 0.1 0.2 0.2 0.5 0.2 0.2 0.4 0.3 0.2 0.1 0.5 0.1z"/>
	<path id="Layer" class="s21" d="m87 379c0-0.8 0.6-1.4 1.2-1.4 0.7 0.1 1.2 0.7 1.1 1.5 0 0.8-0.6 1.5-1.2 1.4-0.7 0-1.2-0.7-1.1-1.5z"/>
	<path id="Layer" class="s23" d="m393.7 387c0-0.7 0.6-1.3 1.2-1.3l7-0.1c0.7 0 1.3 0.6 1.3 1.2l0.1 6.4c0 0.7-0.6 1.2-1.3 1.3h-6.9c-0.7 0.1-1.3-0.5-1.3-1.2z"/>
	<path id="Layer" class="s18" d="m516.5 389.7c0-1.7 1.5-3.1 3.2-3.1h3.1c1.7 0 3.2 1.4 3.1 3.2v3.6c0 1.7-1.5 3.1-3.2 3.1h-3.1c-1.7 0-3.1-1.4-3.1-3.2z"/>
	<path id="Layer" class="s21" d="m122.6 453c0-0.4 0.4-0.7 0.8-0.7h7.5c0.4 0 0.7 0.3 0.7 0.7v7.5c0 0.4-0.3 0.7-0.8 0.7h-7.5c-0.4 0-0.7-0.4-0.7-0.8z"/>
	<path id="Layer" class="s18" d="m207.6 470c0-1.7 1.4-3 3.1-2.9h3.2c1.7 0.1 3.1 1.5 3 3.2l-0.1 3.4c0 1.7-1.4 3-3.1 3l-3.3-0.1c-1.6-0.1-3-1.5-2.9-3.2z"/>
	<path id="Layer" class="s18" d="m444.3 476.7c0-1.6 1.4-2.9 3-2.9h3.7c1.6 0 2.9 1.3 2.9 2.9v3.8c0 1.6-1.3 2.9-2.9 2.9h-3.7c-1.6 0-3-1.3-3-2.9z"/>
	<path id="Layer" class="s21" d="m271 500.3v0.2l-3.4 4q-0.3 0.4-0.2 0 0.8-2.9 3.6-4.3z"/>
	<path id="Layer" class="s18" d="m346.6 515.6c0-1.3 1.1-2.2 2.3-2.1l3.3 0.1c1.2 0.1 2.2 1.2 2.1 2.4l-0.1 2.4c-0.1 1.3-1.2 2.2-2.4 2.1l-3.3-0.1c-1.2-0.1-2.1-1.2-2.1-2.4z"/>
</svg>